# Blender v2.79 (sub 0) OBJ File: 'Diamond Key.blend'
# www.blender.org
mtllib keyNew.mtl
o shape0_material0_mate
v 0.077375 0.915914 -0.077902
v 0.077375 0.915915 0.077902
v 0.149702 0.872229 0.140601
v 0.149702 0.872229 -0.140601
v 0.149702 0.835622 0.140601
v 0.149702 0.835622 -0.140601
v 0.071534 0.741936 -0.067185
v 0.000000 0.741936 -0.095013
v 0.000000 0.701322 -0.162740
v -0.122525 0.701322 -0.115075
v -0.078783 0.663229 -0.073993
v -0.078783 0.663229 0.073993
v 0.000000 0.663229 -0.104642
v 0.000000 0.663229 0.104642
v 0.078783 0.663229 0.073993
v 0.000000 0.701322 0.162740
v 0.122525 0.701322 0.115075
v 0.000000 0.741936 0.095013
v 0.071534 0.741936 0.067185
v 0.000000 0.835622 0.198839
v 0.000000 1.250369 -0.068989
v 0.062503 1.232157 -0.068989
v 0.000000 1.188189 -0.137978
v -0.062503 1.232157 -0.068989
v -0.088392 1.188189 -0.068989
v -0.062503 1.232157 0.068989
v -0.088392 1.188189 0.068989
v 0.000000 1.188189 0.137978
v -0.062503 1.144221 0.068989
v 0.000000 1.126009 0.068989
v 0.000000 1.126009 -0.068989
v 0.062503 1.144221 -0.068989
v 0.088392 1.188189 -0.068989
v 0.088392 1.188189 0.068989
v 0.062503 1.232157 0.068989
v 0.000000 1.250369 0.068989
v 0.050709 0.676434 0.053392
v 0.000000 0.676434 0.075507
v 0.000000 0.590469 0.121601
v 0.081664 0.590469 0.085985
v 0.000000 0.525174 0.198839
v 0.133535 0.525174 0.140601
v 0.000000 0.473628 0.145425
v 0.091104 0.473628 0.102831
v 0.091104 0.473628 -0.102831
v 0.133535 0.525174 -0.140601
v 0.000000 0.525174 -0.198839
v 0.000000 0.590469 -0.121601
v -0.081665 0.590469 -0.085985
v -0.050709 0.676434 -0.053392
v -0.050709 0.676434 0.053392
v 0.000000 0.493881 0.120508
v -0.078793 0.021801 0.085213
v 0.000000 0.021801 0.120509
v 0.078794 0.493881 0.085212
v 0.078794 0.021801 0.085213
v 0.078794 0.493881 -0.085212
v 0.078794 0.021801 -0.085212
v 0.000000 0.493881 -0.120508
v 0.000000 0.021801 -0.120508
v -0.078793 0.493881 -0.085212
v -0.078793 0.021801 -0.085212
v -0.078793 0.493881 0.085212
v 0.000000 0.915914 -0.110170
v 0.000000 0.872229 -0.198839
v 0.000000 0.835622 -0.198839
v -0.071534 0.741936 -0.067185
v -0.122525 0.701322 0.115075
v -0.563692 0.039207 0.066660
v -0.473146 0.105765 0.066660
v -0.473146 0.403740 0.066660
v -0.563692 0.470298 0.066660
v -0.380644 0.403740 0.066660
v -0.286476 0.403740 0.066660
v -0.380644 0.285558 0.066660
v -0.286476 0.343039 0.066660
v -0.068466 0.285558 0.066660
v -0.068466 0.343039 0.066660
v -0.436308 1.188189 -0.112200
v -0.248884 1.188189 -0.112200
v 0.000000 0.998432 -0.112200
v 0.000000 0.854577 -0.112200
v 0.248884 1.188189 -0.112200
v 0.436308 1.188189 -0.112200
v 0.000000 1.377946 -0.112200
v 0.000000 1.521801 -0.112200
v -0.248884 1.188189 0.112200
v -0.436308 1.188189 0.112200
v 0.000000 0.854577 0.112200
v 0.000000 0.998431 0.112200
v 0.436308 1.188189 0.112200
v 0.248884 1.188189 0.112200
v 0.000000 1.521800 0.112200
v 0.000000 1.377946 0.112200
v -0.563692 0.470298 -0.066659
v -0.473146 0.403740 -0.066659
v -0.473146 0.105765 -0.066659
v -0.563692 0.039207 -0.066659
v -0.380644 0.105765 -0.066659
v -0.286476 0.105765 -0.066659
v -0.380644 0.223947 -0.066659
v -0.286476 0.166466 -0.066659
v -0.068466 0.223947 -0.066659
v -0.068466 0.166466 -0.066659
v -0.071534 0.741936 0.067185
v -0.149702 0.835622 0.140601
v 0.000000 0.872229 0.198839
v -0.091104 0.473628 0.102831
v -0.091104 0.473628 -0.102831
v 0.000000 0.473628 -0.145425
v -0.133535 0.525174 -0.140601
v -0.149702 0.835622 -0.140601
v -0.149702 0.872229 0.140601
v 0.000000 0.915915 0.110170
v -0.187833 0.039207 0.066660
v -0.187833 0.105765 0.066660
v -0.286476 0.105765 0.066660
v -0.380644 0.105765 0.066660
v -0.286476 0.166466 0.066660
v -0.380644 0.223947 0.066660
v -0.068466 0.166466 0.066660
v -0.068466 0.223947 0.066660
v -0.187833 0.470298 -0.066659
v -0.187833 0.403740 -0.066659
v -0.286476 0.403740 -0.066659
v -0.380644 0.403740 -0.066659
v -0.286476 0.343039 -0.066659
v -0.380644 0.285558 -0.066659
v -0.068466 0.343039 -0.066659
v -0.068466 0.285558 -0.066659
v 0.122525 0.701322 -0.115075
v 0.078783 0.663229 -0.073993
v -0.149702 0.872229 -0.140601
v -0.077375 0.915915 0.077902
v 0.081664 0.590469 -0.085985
v 0.000000 0.676434 -0.075507
v -0.133535 0.525174 0.140601
v -0.081665 0.590469 0.085985
v 0.258518 1.142286 0.000000
v 0.258518 1.188189 0.088212
v -0.001008 1.188189 0.000000
v 0.258518 1.188189 -0.088213
v 0.258518 1.234092 0.000000
v -0.258518 1.188189 -0.088213
v -0.258518 1.234092 0.000000
v 0.001008 1.188189 0.000000
v -0.258518 1.142286 0.000000
v -0.258518 1.188189 0.088212
v -0.065254 0.993791 0.000000
v 0.000000 0.993791 0.088212
v 0.000000 1.189219 0.000000
v 0.000000 0.993791 -0.088212
v 0.065254 0.993791 0.000000
v 0.050709 0.676434 -0.053392
v -0.077375 0.915914 -0.077902
v 0.000000 1.382587 -0.088213
v 0.065254 1.382587 0.000000
v 0.000000 1.187158 0.000000
v -0.065254 1.382587 0.000000
v 0.000000 1.382587 0.088212
v 0.062503 1.144221 0.068989
v -0.062503 1.144221 -0.068989
v -0.187833 0.105765 -0.066659
v -0.187833 0.039207 -0.066659
v -0.187833 0.403740 0.066660
v -0.187833 0.470298 0.066660
vt 1.282134 -0.807848
vt 1.282134 -0.807848
vt 1.426790 -0.866096
vt 1.426790 -0.866096
vt 1.426790 -0.914904
vt 1.426790 -0.914904
vt 1.270452 -1.039820
vt 1.127385 -1.039820
vt 1.127385 -1.093971
vt 0.882336 -1.093971
vt 0.969819 -1.144763
vt 0.969819 -1.144763
vt 1.127385 -1.144763
vt 1.127385 -1.144763
vt 1.284951 -1.144763
vt 1.127385 -1.093971
vt 1.372433 -1.093971
vt 1.127385 -1.039820
vt 1.270452 -1.039820
vt 1.127385 -0.914904
vt 1.127385 -0.361909
vt 1.252391 -0.386192
vt 1.127385 -0.444816
vt 1.002378 -0.386192
vt 0.950599 -0.444816
vt 1.002378 -0.386192
vt 0.950599 -0.444816
vt 1.127385 -0.444816
vt 1.002378 -0.503440
vt 1.127385 -0.527723
vt 1.127385 -0.527723
vt 1.252391 -0.503440
vt 1.304170 -0.444816
vt 1.304170 -0.444816
vt 1.252391 -0.386192
vt 1.127385 -0.361909
vt 1.228802 -1.127156
vt 1.127384 -1.127156
vt 1.127384 -1.241775
vt 1.290713 -1.241775
vt 1.127384 -1.328836
vt 1.394454 -1.328836
vt 1.127384 -1.397563
vt 1.309592 -1.397563
vt 1.309592 -1.397563
vt 1.394454 -1.328836
vt 1.127384 -1.328836
vt 1.127384 -1.241775
vt 0.964056 -1.241775
vt 1.025967 -1.127156
vt 1.025967 -1.127156
vt 1.127385 -1.370559
vt 0.969798 -2.000000
vt 1.127385 -2.000000
vt 1.284971 -1.370559
vt 1.284971 -2.000000
vt 1.284971 -1.370559
vt 1.284971 -2.000000
vt 1.127385 -1.370559
vt 1.127385 -2.000000
vt 0.969798 -1.370559
vt 0.969798 -2.000000
vt 0.969798 -1.370559
vt 1.127385 -0.807848
vt 1.127385 -0.866096
vt 1.127385 -0.914904
vt 0.984317 -1.039820
vt 0.882336 -1.093971
vt 0.000000 -1.976792
vt 0.181094 -1.888048
vt 0.181094 -1.490747
vt 0.000000 -1.402004
vt 0.366096 -1.490747
vt 0.554433 -1.490747
vt 0.366096 -1.648324
vt 0.554433 -1.571683
vt 0.990453 -1.648324
vt 0.990453 -1.571683
vt 0.254769 -0.444816
vt 0.629617 -0.444816
vt 1.127385 -0.697826
vt 1.127385 -0.889632
vt 1.625152 -0.444816
vt 2.000000 -0.444816
vt 1.127385 -0.191806
vt 1.127384 -0.000000
vt 0.629617 -0.444816
vt 0.254769 -0.444816
vt 1.127385 -0.889632
vt 1.127385 -0.697826
vt 2.000000 -0.444816
vt 1.625152 -0.444816
vt 1.127384 -0.000000
vt 1.127385 -0.191806
vt 0.000000 -1.402004
vt 0.181094 -1.490747
vt 0.181094 -1.888048
vt 0.000000 -1.976792
vt 0.366096 -1.888048
vt 0.554434 -1.888048
vt 0.366096 -1.730472
vt 0.554434 -1.807112
vt 0.990453 -1.730472
vt 0.990453 -1.807112
vt 0.984317 -1.039820
vt 0.827979 -0.914904
vt 1.127385 -0.866096
vt 0.945177 -1.397563
vt 0.945177 -1.397563
vt 1.127384 -1.397563
vt 0.860315 -1.328836
vt 0.827979 -0.914904
vt 0.827979 -0.866096
vt 1.127385 -0.807848
vt 0.751719 -1.976792
vt 0.751719 -1.888048
vt 0.554434 -1.888048
vt 0.366096 -1.888048
vt 0.554434 -1.807112
vt 0.366096 -1.730472
vt 0.990453 -1.807112
vt 0.990453 -1.730472
vt 0.751718 -1.402004
vt 0.751718 -1.490747
vt 0.554433 -1.490747
vt 0.366096 -1.490747
vt 0.554433 -1.571683
vt 0.366096 -1.648324
vt 0.990453 -1.571683
vt 0.990453 -1.648324
vt 1.372433 -1.093971
vt 1.284951 -1.144763
vt 0.827979 -0.866096
vt 0.972635 -0.807848
vt 1.290713 -1.241775
vt 1.127384 -1.127156
vt 0.860315 -1.328836
vt 0.964056 -1.241775
vt 1.644422 -0.506020
vt 1.644422 -0.444816
vt 1.125368 -0.444816
vt 1.644422 -0.444816
vt 1.644422 -0.383612
vt 0.610347 -0.444816
vt 0.610347 -0.383612
vt 1.129401 -0.444816
vt 0.610347 -0.506020
vt 0.610347 -0.444816
vt 0.996877 -0.704013
vt 1.127385 -0.704013
vt 1.127385 -0.443442
vt 1.127385 -0.704013
vt 1.257892 -0.704013
vt 1.228802 -1.127156
vt 0.972635 -0.807848
vt 1.127385 -0.185619
vt 1.257892 -0.185619
vt 1.127385 -0.446190
vt 0.996877 -0.185619
vt 1.127385 -0.185619
vt 1.252391 -0.503440
vt 1.002378 -0.503440
vt 0.751719 -1.888048
vt 0.751719 -1.976792
vt 0.751718 -1.490747
vt 0.751718 -1.402004
vn 0.3687 0.9064 -0.2062
vn 0.3675 0.9055 0.2118
vn 0.7269 0.4667 0.5038
vn 0.7277 0.4657 -0.5035
vn 0.7631 -0.3647 0.5336
vn 0.7631 -0.3647 -0.5336
vn 0.8580 0.1439 -0.4931
vn 0.0000 0.1214 -0.9926
vn 0.0000 0.0170 -0.9998
vn -0.8063 0.0156 -0.5912
vn -0.3291 -0.9257 -0.1862
vn -0.3291 -0.9257 0.1862
vn 0.0000 -0.9384 -0.3455
vn 0.0000 -0.9384 0.3455
vn 0.3291 -0.9257 0.1862
vn 0.0000 0.0170 0.9998
vn 0.8063 0.0156 0.5912
vn 0.0000 0.1214 0.9926
vn 0.8580 0.1439 0.4931
vn 0.0000 -0.3750 0.9270
vn 0.0000 0.9408 -0.3388
vn 0.5820 0.7252 -0.3680
vn 0.0000 0.0000 -1.0000
vn -0.5820 0.7252 -0.3680
vn -0.9205 0.0000 -0.3907
vn -0.5820 0.7252 0.3680
vn -0.9205 0.0000 0.3907
vn 0.0000 0.0000 1.0000
vn -0.5820 -0.7252 0.3680
vn 0.0000 -0.9408 0.3388
vn 0.0000 -0.9408 -0.3388
vn 0.5820 -0.7252 -0.3680
vn 0.9205 0.0000 -0.3907
vn 0.9205 0.0000 0.3907
vn 0.5820 0.7252 0.3680
vn 0.0000 0.9408 0.3388
vn 0.7703 0.4490 0.4527
vn 0.0000 0.4725 0.8813
vn 0.0000 0.6539 0.7566
vn 0.6598 0.6393 0.3949
vn -0.0031 0.0259 0.9996
vn 0.8180 0.0094 0.5750
vn -0.0057 -0.8910 0.4540
vn 0.4105 -0.8836 0.2253
vn 0.4090 -0.8827 -0.2313
vn 0.8164 0.0071 -0.5774
vn 0.0031 0.0259 -0.9996
vn 0.0000 0.6539 -0.7566
vn -0.6598 0.6393 -0.3949
vn -0.7703 0.4490 -0.4527
vn -0.7703 0.4490 0.4527
vn -0.6697 -0.6028 0.4338
vn 0.0000 -0.6256 0.7801
vn 0.8393 0.0000 0.5437
vn 0.6697 -0.6028 0.4338
vn 0.8393 0.0000 -0.5437
vn 0.6697 -0.6028 -0.4338
vn 0.0000 -0.6256 -0.7801
vn -0.8393 0.0000 -0.5437
vn -0.6697 -0.6028 -0.4338
vn -0.8393 0.0000 0.5437
vn -0.0051 0.8983 -0.4392
vn -0.0009 0.4807 -0.8769
vn 0.0000 -0.3750 -0.9270
vn -0.8580 0.1439 -0.4931
vn -0.8063 0.0156 0.5912
vn -0.5773 -0.5773 0.5773
vn 0.3015 0.3015 0.9045
vn 0.3015 -0.3015 0.9045
vn -0.5773 0.5773 0.5773
vn -0.3015 -0.3015 0.9045
vn 0.0000 -0.7071 0.7071
vn 0.0000 0.7071 0.7071
vn -0.8253 0.0000 -0.5647
vn 0.3572 0.0000 -0.9340
vn 0.0000 0.4900 -0.8717
vn 0.0000 -0.8055 -0.5926
vn -0.3572 0.0000 -0.9340
vn 0.8253 0.0000 -0.5647
vn 0.0000 -0.4900 -0.8717
vn 0.0000 0.8055 -0.5926
vn 0.3572 0.0000 0.9340
vn -0.8253 0.0000 0.5647
vn 0.0000 -0.8055 0.5926
vn 0.0000 0.4900 0.8717
vn 0.8253 0.0000 0.5647
vn -0.3572 0.0000 0.9340
vn 0.0000 0.8055 0.5926
vn 0.0000 -0.4900 0.8717
vn -0.5773 0.5773 -0.5773
vn 0.3015 -0.3015 -0.9045
vn 0.3015 0.3015 -0.9045
vn -0.5773 -0.5773 -0.5773
vn -0.3015 0.3015 -0.9045
vn 0.0000 0.7071 -0.7071
vn 0.0000 -0.7071 -0.7071
vn -0.8580 0.1439 0.4931
vn -0.7631 -0.3647 0.5336
vn 0.0009 0.4807 0.8769
vn -0.4091 -0.8827 0.2313
vn -0.4105 -0.8836 -0.2253
vn 0.0057 -0.8910 -0.4540
vn -0.8180 0.0094 -0.5750
vn -0.7631 -0.3647 -0.5336
vn -0.7277 0.4657 0.5035
vn 0.0051 0.8983 0.4392
vn 0.5773 -0.5773 0.5773
vn 0.5773 0.5773 0.5773
vn -0.3015 0.3015 0.9045
vn 0.5773 0.5773 -0.5773
vn 0.5773 -0.5773 -0.5773
vn -0.3015 -0.3015 -0.9045
vn 0.8063 0.0156 -0.5912
vn 0.3291 -0.9257 -0.1862
vn -0.7269 0.4667 -0.5038
vn -0.3687 0.9064 0.2062
vn 0.6598 0.6393 -0.3949
vn 0.0000 0.4725 -0.8813
vn -0.8164 0.0071 0.5774
vn -0.6598 0.6393 0.3949
vn -0.1741 -0.9847 0.0000
vn -0.3218 0.0000 0.9468
vn -1.0000 0.0000 0.0000
vn -0.3218 0.0000 -0.9468
vn -0.1741 0.9847 0.0000
vn 0.3218 0.0000 -0.9468
vn 0.1741 0.9847 0.0000
vn 1.0000 0.0000 0.0000
vn 0.1741 -0.9847 0.0000
vn 0.3218 0.0000 0.9468
vn -0.9485 0.3167 0.0000
vn 0.0000 0.4114 0.9114
vn 0.0000 1.0000 0.0000
vn 0.0000 0.4114 -0.9114
vn 0.9485 0.3167 0.0000
vn 0.7703 0.4490 -0.4527
vn -0.3675 0.9056 -0.2118
vn 0.0000 -0.4114 -0.9114
vn 0.9485 -0.3167 0.0000
vn 0.0000 -1.0000 0.0000
vn -0.9485 -0.3167 0.0000
vn 0.0000 -0.4114 0.9114
vn 0.5820 -0.7252 0.3680
vn -0.5820 -0.7252 -0.3680
usemtl material0_key04_0.png
s 1
f 1/1/1 2/2/2 3/3/3
f 1/1/1 3/3/3 4/4/4
f 3/3/3 5/5/5 4/4/4
f 4/4/4 5/5/5 6/6/6
f 6/6/6 5/5/5 7/7/7
f 6/6/6 7/7/7 8/8/8
f 8/8/8 7/7/7 9/9/9
f 8/8/8 9/9/9 10/10/10
f 10/10/10 9/9/9 11/11/11
f 10/10/10 11/11/11 12/12/12
f 12/12/12 11/11/11 13/13/13
f 12/12/12 13/13/13 14/14/14
f 14/14/14 13/13/13 15/15/15
f 14/14/14 15/15/15 16/16/16
f 16/16/16 15/15/15 17/17/17
f 16/16/16 17/17/17 18/18/18
f 18/18/18 17/17/17 19/19/19
f 18/18/18 19/19/19 20/20/20
f 19/19/19 5/5/5 20/20/20
f 20/20/20 5/5/5 3/3/3
f 21/21/21 22/22/22 23/23/23
f 21/21/21 23/23/23 24/24/24
f 24/24/24 23/23/23 25/25/25
f 24/24/24 25/25/25 26/26/26
f 26/26/26 25/25/25 27/27/27
f 26/26/26 27/27/27 28/28/28
f 28/28/28 27/27/27 29/29/29
f 28/28/28 29/29/29 30/30/30
f 30/30/30 29/29/29 31/31/31
f 30/30/30 31/31/31 32/32/32
f 32/32/32 31/31/31 23/23/23
f 32/32/32 23/23/23 33/33/33
f 33/33/33 23/23/23 22/22/22
f 33/33/33 22/22/22 34/34/34
f 34/34/34 22/22/22 35/35/35
f 34/34/34 35/35/35 28/28/28
f 28/28/28 35/35/35 36/36/36
f 28/28/28 36/36/36 26/26/26
f 26/26/26 36/36/36 24/24/24
f 37/37/37 38/38/38 39/39/39
f 37/37/37 39/39/39 40/40/40
f 40/40/40 39/39/39 41/41/41
f 40/40/40 41/41/41 42/42/42
f 42/42/42 41/41/41 43/43/43
f 42/42/42 43/43/43 44/44/44
f 44/44/44 43/43/43 45/45/45
f 44/44/44 45/45/45 46/46/46
f 46/46/46 45/45/45 47/47/47
f 46/46/46 47/47/47 48/48/48
f 48/48/48 47/47/47 49/49/49
f 48/48/48 49/49/49 50/50/50
f 50/50/50 49/49/49 51/51/51
f 52/52/28 53/53/52 54/54/53
f 52/52/28 54/54/53 55/55/54
f 55/55/54 54/54/53 56/56/55
f 55/55/54 56/56/55 57/57/56
f 57/57/56 56/56/55 58/58/57
f 57/57/56 58/58/57 59/59/23
f 59/59/23 58/58/57 60/60/58
f 59/59/23 60/60/58 61/61/59
f 61/61/59 60/60/58 62/62/60
f 61/61/59 62/62/60 63/63/61
f 63/63/61 62/62/60 53/53/52
f 63/63/61 53/53/52 52/52/28
f 64/64/62 1/1/1 4/4/4
f 64/64/62 4/4/4 65/65/63
f 65/65/63 4/4/4 6/6/6
f 65/65/63 6/6/6 66/66/64
f 66/66/64 6/6/6 8/8/8
f 66/66/64 8/8/8 67/67/65
f 67/67/65 8/8/8 10/10/10
f 67/67/65 10/10/10 68/68/66
f 68/68/66 10/10/10 12/12/12
f 68/68/66 12/12/12 14/14/14
f 69/69/67 70/70/68 71/71/69
f 69/69/67 71/71/69 72/72/70
f 72/72/70 71/71/69 73/73/71
f 72/72/70 73/73/71 74/74/69
f 74/74/69 73/73/71 75/75/67
f 74/74/69 75/75/67 76/76/68
f 76/76/68 75/75/67 77/77/72
f 76/76/68 77/77/72 78/78/73
f 79/79/74 80/80/75 81/81/76
f 79/79/74 81/81/76 82/82/77
f 82/82/77 81/81/76 83/83/78
f 82/82/77 83/83/78 84/84/79
f 84/84/79 83/83/78 85/85/80
f 84/84/79 85/85/80 86/86/81
f 86/86/81 85/85/80 80/80/75
f 86/86/81 80/80/75 79/79/74
f 87/87/82 88/88/83 89/89/84
f 87/87/82 89/89/84 90/90/85
f 90/90/85 89/89/84 91/91/86
f 90/90/85 91/91/86 92/92/87
f 92/92/87 91/91/86 93/93/88
f 92/92/87 93/93/88 94/94/89
f 94/94/89 93/93/88 88/88/83
f 94/94/89 88/88/83 87/87/82
f 95/95/90 96/96/91 97/97/92
f 95/95/90 97/97/92 98/98/93
f 98/98/93 97/97/92 99/99/94
f 98/98/93 99/99/94 100/100/92
f 100/100/92 99/99/94 101/101/90
f 100/100/92 101/101/90 102/102/91
f 102/102/91 101/101/90 103/103/95
f 102/102/91 103/103/95 104/104/96
f 68/68/66 14/14/14 16/16/16
f 68/68/66 16/16/16 105/105/97
f 105/105/97 16/16/16 18/18/18
f 105/105/97 18/18/18 106/106/98
f 106/106/98 18/18/18 20/20/20
f 106/106/98 20/20/20 107/107/99
f 107/107/99 20/20/20 3/3/3
f 107/107/99 3/3/3 2/2/2
f 43/43/43 41/41/41 108/108/100
f 43/43/43 108/108/100 45/45/45
f 45/45/45 108/108/100 109/109/101
f 45/45/45 109/109/101 110/110/102
f 110/110/102 109/109/101 111/111/103
f 110/110/102 111/111/103 47/47/47
f 47/47/47 111/111/103 49/49/49
f 67/67/65 68/68/66 105/105/97
f 67/67/65 105/105/97 112/112/104
f 112/112/104 105/105/97 106/106/98
f 112/112/104 106/106/98 113/113/105
f 113/113/105 106/106/98 107/107/99
f 113/113/105 107/107/99 114/114/106
f 114/114/106 107/107/99 2/2/2
f 115/115/107 116/116/108 117/117/68
f 115/115/107 117/117/68 118/118/109
f 118/118/109 117/117/68 119/119/69
f 118/118/109 119/119/69 120/120/70
f 120/120/70 119/119/69 121/121/72
f 120/120/70 121/121/72 122/122/73
f 123/123/110 124/124/111 125/125/91
f 123/123/110 125/125/91 126/126/112
f 126/126/112 125/125/91 127/127/92
f 126/126/112 127/127/92 128/128/93
f 128/128/93 127/127/92 129/129/95
f 128/128/93 129/129/95 130/130/96
f 7/7/7 5/5/5 19/19/19
f 7/7/7 19/19/19 131/131/113
f 131/131/113 19/19/19 17/17/17
f 131/131/113 17/17/17 132/132/114
f 132/132/114 17/17/17 15/15/15
f 132/132/114 15/15/15 13/13/13
f 66/66/64 67/67/65 112/112/104
f 66/66/64 112/112/104 133/133/115
f 133/133/115 112/112/104 113/113/105
f 133/133/115 113/113/105 134/134/116
f 134/134/116 113/113/105 114/114/106
f 42/42/42 44/44/44 46/46/46
f 42/42/42 46/46/46 135/135/117
f 135/135/117 46/46/46 48/48/48
f 135/135/117 48/48/48 136/136/118
f 136/136/118 48/48/48 50/50/50
f 89/89/84 82/82/77 84/84/79
f 89/89/84 84/84/79 91/91/86
f 91/91/86 84/84/79 86/86/81
f 91/91/86 86/86/81 93/93/88
f 137/137/119 41/41/41 39/39/39
f 137/137/119 39/39/39 138/138/120
f 138/138/120 39/39/39 38/38/38
f 138/138/120 38/38/38 51/51/51
f 82/82/77 89/89/84 88/88/83
f 82/82/77 88/88/83 79/79/74
f 79/79/74 88/88/83 93/93/88
f 79/79/74 93/93/88 86/86/81
f 139/139/121 140/140/122 141/141/123
f 139/139/121 141/141/123 142/142/124
f 142/142/124 141/141/123 143/143/125
f 144/144/126 145/145/127 146/146/128
f 144/144/126 146/146/128 147/147/129
f 147/147/129 146/146/128 148/148/130
f 149/149/131 150/150/132 151/151/133
f 149/149/131 151/151/133 152/152/134
f 152/152/134 151/151/133 153/153/135
f 40/40/40 42/42/42 135/135/117
f 40/40/40 135/135/117 154/154/136
f 154/154/136 135/135/117 136/136/118
f 155/155/137 64/64/62 65/65/63
f 155/155/137 65/65/63 133/133/115
f 133/133/115 65/65/63 66/66/64
f 108/108/100 41/41/41 137/137/119
f 108/108/100 137/137/119 109/109/101
f 109/109/101 137/137/119 111/111/103
f 13/13/13 11/11/11 9/9/9
f 13/13/13 9/9/9 131/131/113
f 131/131/113 9/9/9 7/7/7
f 111/111/103 137/137/119 138/138/120
f 111/111/103 138/138/120 49/49/49
f 49/49/49 138/138/120 51/51/51
f 156/156/138 157/157/139 158/158/140
f 156/156/138 158/158/140 159/159/141
f 159/159/141 158/158/140 160/160/142
f 34/34/34 28/28/28 161/161/143
f 34/34/34 161/161/143 33/33/33
f 33/33/33 161/161/143 32/32/32
f 23/23/23 31/31/31 162/162/144
f 23/23/23 162/162/144 25/25/25
f 25/25/25 162/162/144 27/27/27
f 100/100/92 163/163/110 164/164/111
f 100/100/92 164/164/111 98/98/93
f 62/62/60 60/60/58 58/58/57
f 62/62/60 58/58/57 56/56/55
f 62/62/60 56/56/55 54/54/53
f 62/62/60 54/54/53 53/53/52
f 95/95/90 123/123/110 126/126/112
f 95/95/90 126/126/112 96/96/91
f 74/74/69 165/165/107 166/166/108
f 74/74/69 166/166/108 72/72/70
f 101/101/90 99/99/94 118/118/109
f 101/101/90 118/118/109 120/120/70
f 99/99/94 97/97/92 70/70/68
f 99/99/94 70/70/68 118/118/109
f 97/97/92 96/96/91 71/71/69
f 97/97/92 71/71/69 70/70/68
f 96/96/91 126/126/112 73/73/71
f 96/96/91 73/73/71 71/71/69
f 126/126/112 128/128/93 75/75/67
f 126/126/112 75/75/67 73/73/71
f 130/130/96 77/77/72 75/75/67
f 130/130/96 75/75/67 128/128/93
f 103/103/95 101/101/90 120/120/70
f 103/103/95 120/120/70 122/122/73
f 72/72/70 95/95/90 98/98/93
f 72/72/70 98/98/93 69/69/67
f 98/98/93 164/164/111 115/115/107
f 98/98/93 115/115/107 69/69/67
f 72/72/70 166/166/108 123/123/110
f 72/72/70 123/123/110 95/95/90
f 76/76/68 78/78/73 129/129/95
f 76/76/68 129/129/95 127/127/92
f 121/121/72 119/119/69 102/102/91
f 121/121/72 102/102/91 104/104/96
f 116/116/108 163/163/110 100/100/92
f 116/116/108 100/100/92 117/117/68
f 163/163/110 116/116/108 115/115/107
f 163/163/110 115/115/107 164/164/111
f 117/117/68 100/100/92 102/102/91
f 117/117/68 102/102/91 119/119/69
f 74/74/69 125/125/91 124/124/111
f 74/74/69 124/124/111 165/165/107
f 165/165/107 124/124/111 123/123/110
f 165/165/107 123/123/110 166/166/108
f 125/125/91 74/74/69 76/76/68
f 125/125/91 76/76/68 127/127/92
f 80/80/75 85/85/80 94/94/89
f 80/80/75 94/94/89 87/87/82
f 87/87/82 90/90/85 81/81/76
f 87/87/82 81/81/76 80/80/75
f 83/83/78 81/81/76 90/90/85
f 83/83/78 90/90/85 92/92/87
f 21/21/21 24/24/24 36/36/36
f 21/21/21 36/36/36 35/35/35
f 92/92/87 94/94/89 85/85/80
f 92/92/87 85/85/80 83/83/78
f 161/161/143 28/28/28 30/30/30
f 161/161/143 30/30/30 32/32/32
f 69/69/67 115/115/107 118/118/109
f 69/69/67 118/118/109 70/70/68
f 162/162/144 31/31/31 29/29/29
f 162/162/144 29/29/29 27/27/27
f 157/157/139 160/160/142 158/158/140
f 151/151/133 150/150/132 153/153/135
f 132/132/114 13/13/13 131/131/113
f 155/155/137 133/133/115 134/134/116
f 21/21/21 35/35/35 22/22/22
f 40/40/40 154/154/136 37/37/37
f 141/141/123 140/140/122 143/143/125
f 110/110/102 47/47/47 45/45/45
f 145/145/127 148/148/130 146/146/128
